<svg width="330" height="38" viewBox="0 0 330 38" fill="none" xmlns="http://www.w3.org/2000/svg">
<path d="M333.569 29.9819C329.805 29.6159 325.791 29.9122 323.44 30.5505C273.831 50.1196 286.45 14.0412 257.945 17.2263C245.787 17.6522 232.806 32.3304 219.275 31.4873C215.673 30.7455 214.186 29.1747 212.393 26.4689C205.917 9.42589 189.995 1.05252 169.004 0.0961266V0.0449332C166.65 -0.0149777 164.397 -0.0149777 162.046 0.0449332V0.0961266C141.057 1.05252 125.133 9.42589 118.657 26.4689C117.101 29.0244 115.219 30.4993 113.091 31.1736C99.3974 34.4327 82.1782 13.3027 65.1416 17.2426C51.5877 19.4212 52.545 36.0351 32.9146 36.0351C13.9208 36.4708 12.9704 29.0908 -1.16198 29.8838C-14.709 29.7183 -22.9219 42.683 -22.2223 42.9553H353.278C353.278 42.9553 348.699 31.3958 333.569 29.9819Z" fill="#36B084" fill-opacity="0.06"/>
</svg>
