<svg width="20" height="20" viewBox="0 0 20 20" fill="none" xmlns="http://www.w3.org/2000/svg">
<path d="M5.83333 5.00016H19.1667C19.3877 5.00016 19.5996 4.91237 19.7559 4.75608C19.9122 4.5998 20 4.38784 20 4.16683C20 3.94582 19.9122 3.73385 19.7559 3.57757C19.5996 3.42129 19.3877 3.3335 19.1667 3.3335H5.83333C5.61232 3.3335 5.40036 3.42129 5.24408 3.57757C5.0878 3.73385 5 3.94582 5 4.16683C5 4.38784 5.0878 4.5998 5.24408 4.75608C5.40036 4.91237 5.61232 5.00016 5.83333 5.00016Z" fill="#3D4953"/>
<path d="M19.1667 9.1665H5.83333C5.61232 9.1665 5.40036 9.2543 5.24408 9.41058C5.0878 9.56686 5 9.77882 5 9.99984C5 10.2209 5.0878 10.4328 5.24408 10.5891C5.40036 10.7454 5.61232 10.8332 5.83333 10.8332H19.1667C19.3877 10.8332 19.5996 10.7454 19.7559 10.5891C19.9122 10.4328 20 10.2209 20 9.99984C20 9.77882 19.9122 9.56686 19.7559 9.41058C19.5996 9.2543 19.3877 9.1665 19.1667 9.1665Z" fill="#3D4953"/>
<path d="M19.1667 14.9995H5.83333C5.61232 14.9995 5.40036 15.0873 5.24408 15.2436C5.0878 15.3999 5 15.6118 5 15.8328C5 16.0539 5.0878 16.2658 5.24408 16.4221C5.40036 16.5784 5.61232 16.6662 5.83333 16.6662H19.1667C19.3877 16.6662 19.5996 16.5784 19.7559 16.4221C19.9122 16.2658 20 16.0539 20 15.8328C20 15.6118 19.9122 15.3999 19.7559 15.2436C19.5996 15.0873 19.3877 14.9995 19.1667 14.9995Z" fill="#3D4953"/>
<path d="M1.66667 5.83284C2.58714 5.83284 3.33333 5.08665 3.33333 4.16618C3.33333 3.2457 2.58714 2.49951 1.66667 2.49951C0.746192 2.49951 0 3.2457 0 4.16618C0 5.08665 0.746192 5.83284 1.66667 5.83284Z" fill="#3D4953"/>
<path d="M1.66667 11.6668C2.58714 11.6668 3.33333 10.9206 3.33333 10.0002C3.33333 9.07969 2.58714 8.3335 1.66667 8.3335C0.746192 8.3335 0 9.07969 0 10.0002C0 10.9206 0.746192 11.6668 1.66667 11.6668Z" fill="#3D4953"/>
<path d="M1.66667 17.4998C2.58714 17.4998 3.33333 16.7536 3.33333 15.8332C3.33333 14.9127 2.58714 14.1665 1.66667 14.1665C0.746192 14.1665 0 14.9127 0 15.8332C0 16.7536 0.746192 17.4998 1.66667 17.4998Z" fill="#3D4953"/>
</svg>
