<svg width="28" height="28" viewBox="0 0 28 28" fill="none" xmlns="http://www.w3.org/2000/svg">
<path d="M9.33464 18.6665H7.0013C6.38246 18.6665 5.78897 18.4207 5.35139 17.9831C4.9138 17.5455 4.66797 16.952 4.66797 16.3332V6.99984C4.66797 6.381 4.9138 5.78751 5.35139 5.34992C5.78897 4.91234 6.38246 4.6665 7.0013 4.6665H16.3346C16.9535 4.6665 17.547 4.91234 17.9846 5.34992C18.4221 5.78751 18.668 6.381 18.668 6.99984V9.33317M11.668 23.3332H21.0013C21.6201 23.3332 22.2136 23.0873 22.6512 22.6498C23.0888 22.2122 23.3346 21.6187 23.3346 20.9998V11.6665C23.3346 11.0477 23.0888 10.4542 22.6512 10.0166C22.2136 9.579 21.6201 9.33317 21.0013 9.33317H11.668C11.0491 9.33317 10.4556 9.579 10.0181 10.0166C9.58047 10.4542 9.33464 11.0477 9.33464 11.6665V20.9998C9.33464 21.6187 9.58047 22.2122 10.0181 22.6498C10.4556 23.0873 11.0491 23.3332 11.668 23.3332Z" stroke="#1AA483" stroke-width="1.5" stroke-linecap="round" stroke-linejoin="round"/>
</svg>
