<svg width="23" height="32" viewBox="0 0 23 32" fill="none" xmlns="http://www.w3.org/2000/svg">
<g clip-path="url(#clip0_1_1775)">
<path d="M21.0721 1.6803L0.00195312 1.76855L0.119118 29.7396L21.1893 29.6513L21.0721 1.6803Z" fill="#36B084"/>
<path d="M1.22338 0.0864258L0 1.78712L0.114589 29.7575L1.33797 28.0569L1.22338 0.0864258Z" fill="#36B084"/>
<path d="M1.3376 28.0571L22.0329 27.9722L21.1821 28.9961L0.510742 29.2071L1.3376 28.0571Z" fill="#F8EEE8"/>
<path d="M22.2957 -0.0203879L1.22559 0.0678711L1.34275 28.0389L22.4129 27.9506L22.2957 -0.0203879Z" fill="#36B084"/>
<path d="M21.7044 0.593553L21.814 27.3859L1.92586 27.4684L1.81623 0.680114L21.7044 0.597676V0.593553ZM22.293 0L1.22266 0.086559L1.33726 28.057L22.4076 27.9704L22.293 0Z" fill="#36B084"/>
<path d="M13.9023 32.0003L15.6212 31.9846L15.6492 28.3524L13.9568 28.3516L13.9023 32.0003Z" fill="#36B084"/>
<path d="M3.75638 5.86076C3.71498 5.84239 3.67974 5.81248 3.65488 5.77462C3.63003 5.73675 3.61661 5.69253 3.61622 5.64724C3.61403 4.78374 3.95457 3.95464 4.56307 3.34197C5.17157 2.72929 5.99832 2.3831 6.86182 2.37939C6.92391 2.37939 6.98345 2.40406 7.02736 2.44797C7.07127 2.49187 7.09593 2.55142 7.09593 2.61352C7.09593 2.67561 7.07127 2.73516 7.02736 2.77907C6.98345 2.82298 6.92391 2.84764 6.86182 2.84764C6.12192 2.85179 5.41386 3.14918 4.89291 3.67461C4.37195 4.20005 4.08064 4.91063 4.08283 5.65054C4.08305 5.71249 4.0587 5.772 4.01513 5.81604C3.97155 5.86008 3.9123 5.88505 3.85035 5.88549C3.81767 5.8837 3.78571 5.87528 3.75638 5.86076Z" fill="#36B084"/>
<path d="M19.6166 5.7949C19.575 5.77679 19.5396 5.74695 19.5147 5.70902C19.4898 5.6711 19.4766 5.62675 19.4765 5.58139C19.4723 4.84156 19.1749 4.13359 18.6495 3.61277C18.124 3.09195 17.4134 2.80081 16.6736 2.80322C16.6115 2.80322 16.5519 2.77856 16.508 2.73465C16.4641 2.69074 16.4395 2.63119 16.4395 2.5691C16.4395 2.507 16.4641 2.44745 16.508 2.40355C16.5519 2.35964 16.6115 2.33497 16.6736 2.33497C17.5374 2.33256 18.3669 2.67278 18.9803 3.28103C19.5936 3.88929 19.9408 4.71594 19.9455 5.57974C19.9457 5.61048 19.9397 5.64095 19.928 5.6694C19.9164 5.69784 19.8992 5.72371 19.8776 5.74553C19.8559 5.76735 19.8301 5.78468 19.8018 5.79655C19.7734 5.80841 19.743 5.81458 19.7122 5.81469C19.6793 5.81512 19.6467 5.80836 19.6166 5.7949Z" fill="#36B084"/>
<path d="M16.6722 25.6622C16.6231 25.6407 16.5828 25.6029 16.5583 25.5552C16.5337 25.5075 16.5262 25.4528 16.5371 25.4003C16.548 25.3478 16.5766 25.3006 16.6182 25.2666C16.6597 25.2327 16.7117 25.214 16.7653 25.2138C17.1318 25.2123 17.4945 25.1386 17.8325 24.9969C18.1706 24.8552 18.4774 24.6483 18.7354 24.388C18.9935 24.1277 19.1978 23.8191 19.3366 23.4799C19.4753 23.1407 19.5459 22.7774 19.5443 22.4109C19.5443 22.3488 19.569 22.2892 19.6129 22.2453C19.6568 22.2014 19.7163 22.1768 19.7784 22.1768C19.8405 22.1768 19.9001 22.2014 19.944 22.2453C19.9879 22.2892 20.0126 22.3488 20.0126 22.4109C20.0161 23.2752 19.6761 24.1056 19.0675 24.7193C18.4588 25.3331 17.6313 25.68 16.767 25.6837C16.7342 25.683 16.702 25.6758 16.6722 25.6622Z" fill="#36B084"/>
<path d="M5.63437 25.4487C5.05724 25.1944 4.56608 24.7785 4.22025 24.2511C3.87441 23.7237 3.6887 23.1075 3.68555 22.4768C3.68555 22.4147 3.71021 22.3552 3.75412 22.3112C3.79802 22.2673 3.85758 22.2427 3.91968 22.2427C3.98177 22.2427 4.04131 22.2673 4.08522 22.3112C4.12913 22.3552 4.15379 22.4147 4.15379 22.4768C4.15728 23.2169 4.45447 23.9253 4.98004 24.4464C5.50562 24.9675 6.21658 25.2586 6.95669 25.2558C6.98743 25.2558 7.01788 25.2618 7.04629 25.2736C7.07469 25.2854 7.10051 25.3026 7.12225 25.3244C7.14399 25.3461 7.16122 25.3719 7.17298 25.4003C7.18475 25.4287 7.19082 25.4592 7.19082 25.4899C7.19082 25.5207 7.18475 25.5511 7.17298 25.5795C7.16122 25.6079 7.14399 25.6337 7.12225 25.6555C7.10051 25.6772 7.07469 25.6944 7.04629 25.7062C7.01788 25.718 6.98743 25.724 6.95669 25.724C6.50148 25.726 6.05096 25.6322 5.63437 25.4487Z" fill="#36B084"/>
<path d="M18.6424 9.3858C20.8911 11.6778 17.5555 13.9616 17.5555 15.3099C17.5555 16.6583 18.6161 19.1603 17.0319 20.2195C15.4477 21.2788 11.9832 21.3587 10.0031 21.1326C8.67107 20.9805 6.31938 20.38 4.92678 18.6409C3.53419 16.9018 4.00337 14.0295 4.83354 11.7786C5.4504 10.1056 5.82684 8.7418 7.41135 7.68288C8.99586 6.62396 11.4725 9.40964 12.8796 9.81749C14.2867 10.2253 16.628 7.33275 18.6424 9.3858Z" fill="white" fill-opacity="0.08"/>
<path d="M11.786 21.6875C11.5677 21.6879 11.3585 21.6013 11.2046 21.4465L9.54675 19.7883C9.45433 19.6954 9.32869 19.6435 9.19778 19.6438H6.85234C6.39845 19.6433 6.03057 19.2754 6.03007 18.8215V16.4764C6.02974 16.3457 5.97778 16.2203 5.88568 16.1276L4.22782 14.4692C3.90681 14.1482 3.90681 13.6276 4.22782 13.3066L5.88601 11.6482C5.9781 11.5554 6.02974 11.4301 6.03007 11.2994V8.95428C6.03057 8.50038 6.39845 8.1325 6.85234 8.13201H9.19745C9.32836 8.13234 9.454 8.08037 9.54643 7.98745L11.2049 6.32926C11.5261 6.00808 12.0466 6.00808 12.3678 6.32926L14.026 7.98745C14.1184 8.08037 14.2441 8.13234 14.375 8.13201H16.7196C17.1735 8.1325 17.5414 8.50038 17.5418 8.95428V11.2994C17.5415 11.4303 17.5935 11.5559 17.6864 11.6482L19.3449 13.3066C19.6659 13.6276 19.6659 14.1482 19.3449 14.4692L17.6867 16.1276C17.5938 16.2199 17.5415 16.3455 17.5418 16.4764V18.8215C17.5414 19.2754 17.1735 19.6433 16.7196 19.6438H14.375C14.2441 19.6435 14.1184 19.6954 14.026 19.7883L12.3678 21.4465C12.2139 21.6013 12.0044 21.6881 11.786 21.6875ZM6.85234 8.46091C6.57984 8.46091 6.35898 8.68178 6.35898 8.95428V11.2994C6.35997 11.5178 6.2733 11.7275 6.11855 11.8816L4.46036 13.5391C4.26778 13.7318 4.26778 14.044 4.46036 14.2367L6.11855 15.8951C6.27313 16.049 6.35964 16.2583 6.35898 16.4764V18.8215C6.35898 19.094 6.57984 19.3149 6.85234 19.3149H9.19745C9.41585 19.3142 9.62553 19.4009 9.77962 19.5558L11.4375 21.214C11.6327 21.4003 11.9401 21.4003 12.1353 21.214L13.7934 19.5558C13.9474 19.401 14.1567 19.3144 14.375 19.3149H16.7196C16.9921 19.3149 17.2129 19.094 17.2129 18.8215V16.4764C17.2123 16.2582 17.2991 16.0488 17.4539 15.8951L19.1124 14.2367C19.305 14.044 19.305 13.7318 19.1124 13.5391L17.4542 11.8816C17.2991 11.7276 17.2123 11.5179 17.2129 11.2994V8.95428C17.2129 8.68178 16.9921 8.46091 16.7196 8.46091H14.375C14.1567 8.46141 13.9474 8.37474 13.7934 8.21999L12.1353 6.5618C11.9401 6.37547 11.6327 6.37547 11.4375 6.5618L9.77962 8.21999C9.62569 8.37474 9.41618 8.46157 9.19778 8.46091H6.85234Z" fill="white"/>
<path d="M11.786 20.8935C11.6551 20.8939 11.5294 20.8417 11.4372 20.749L9.72272 19.0341C9.69197 19.0031 9.65003 18.9859 9.60645 18.9859H7.18125C6.90875 18.9859 6.68789 18.765 6.68789 18.4925V16.3401C6.68855 16.1219 6.60188 15.9124 6.44697 15.7585L4.92544 14.2366C4.73286 14.0439 4.73286 13.7317 4.92544 13.539L6.44746 12.017C6.60205 11.863 6.68871 11.6537 6.68789 11.4355V9.2831C6.68789 9.0106 6.90875 8.78973 7.18125 8.78973H9.60645C9.65003 8.78973 9.69197 8.77247 9.72272 8.74155L11.4375 7.02695C11.6327 6.84063 11.9401 6.84063 12.1353 7.02695L13.85 8.74155C13.8808 8.77247 13.9227 8.7899 13.9663 8.78973H16.3907C16.6632 8.78973 16.884 9.0106 16.884 9.2831V11.708C16.8839 11.7515 16.9011 11.7935 16.9322 11.8241L18.6473 13.539C18.8399 13.7317 18.8399 14.0439 18.6473 14.2366L16.9334 15.9514C16.9025 15.9821 16.885 16.0241 16.8852 16.0676V18.4925C16.8852 18.765 16.6643 18.9859 16.3918 18.9859H13.9663C13.9227 18.9857 13.8808 19.0031 13.85 19.0341L12.1353 20.7487C12.0428 20.8417 11.917 20.8939 11.786 20.8935ZM9.95526 18.8015L11.6708 20.5161C11.7358 20.5784 11.8384 20.5784 11.9034 20.5161L13.6175 18.8015C13.7097 18.7086 13.8354 18.6566 13.9663 18.657H16.3907C16.4815 18.657 16.5551 18.5833 16.5551 18.4925V16.0676C16.5548 15.9366 16.6069 15.8109 16.6998 15.7187L18.4148 14.0041C18.4789 13.9399 18.4789 13.8357 18.4148 13.7715L16.7 12.0568C16.6071 11.9645 16.5548 11.8389 16.5551 11.708V9.2831C16.5551 9.19232 16.4815 9.11864 16.3907 9.11864H13.9663C13.8354 9.11897 13.7097 9.067 13.6175 8.97409L11.9026 7.26031C11.8376 7.19798 11.7351 7.19798 11.6702 7.26031L9.95526 8.97409C9.863 9.067 9.73736 9.11897 9.60645 9.11864H7.18125C7.09047 9.11864 7.0168 9.19232 7.0168 9.2831V11.4355C7.01779 11.741 6.89625 12.0342 6.67967 12.2497L5.15847 13.7715C5.09433 13.8357 5.09433 13.9399 5.15847 14.0041L6.67967 15.5258C6.89642 15.7412 7.01779 16.0346 7.0168 16.3401V18.4925C7.0168 18.5833 7.09047 18.657 7.18125 18.657H9.60645C9.73736 18.6566 9.863 18.7086 9.95526 18.8015Z" fill="white"/>
</g>
<defs>
<clipPath id="clip0_1_1775">
<rect width="22.4075" height="32" fill="white"/>
</clipPath>
</defs>
</svg>
