<svg width="20" height="20" viewBox="0 0 20 20" fill="none" xmlns="http://www.w3.org/2000/svg">
<g opacity="0.3">
<path d="M7.99497 3.28285C8.06997 2.83118 8.46164 2.49951 8.91997 2.49951H11.0808C11.5391 2.49951 11.9308 2.83118 12.0058 3.28285L12.1833 4.35035C12.2358 4.66201 12.4441 4.92201 12.7208 5.07535C12.7825 5.10868 12.8433 5.14451 12.9041 5.18118C13.1741 5.34451 13.5041 5.39534 13.8 5.28451L14.8141 4.90451C15.022 4.82635 15.2508 4.82449 15.4599 4.89927C15.6689 4.97405 15.8447 5.12061 15.9558 5.31284L17.0358 7.18535C17.1467 7.3776 17.1858 7.60295 17.1461 7.82132C17.1064 8.03968 16.9906 8.23688 16.8191 8.37784L15.9833 9.06701C15.7391 9.26701 15.6183 9.57784 15.6241 9.89368C15.6255 9.96451 15.6255 10.0354 15.6241 10.1062C15.6183 10.4212 15.7391 10.7312 15.9825 10.9312L16.82 11.6212C17.1733 11.9128 17.265 12.4162 17.0366 12.8128L15.955 14.6853C15.844 14.8775 15.6685 15.0241 15.4596 15.0991C15.2507 15.174 15.022 15.1724 14.8141 15.0945L13.8 14.7145C13.5041 14.6037 13.175 14.6545 12.9033 14.8178C12.8429 14.8546 12.7818 14.8901 12.72 14.9245C12.4441 15.077 12.2358 15.337 12.1833 15.6487L12.0058 16.7153C11.9308 17.1678 11.5391 17.4995 11.0808 17.4995H8.91913C8.4608 17.4995 8.06914 17.1678 7.99414 16.7162L7.81663 15.6487C7.76497 15.337 7.55663 15.077 7.27997 14.9237C7.21818 14.8896 7.15705 14.8543 7.09663 14.8178C6.8258 14.6545 6.49663 14.6037 6.19997 14.7145L5.1858 15.0945C4.97807 15.1724 4.74944 15.1742 4.54055 15.0994C4.33166 15.0247 4.15606 14.8782 4.04497 14.6862L2.96413 12.8137C2.85325 12.6214 2.81417 12.3961 2.85385 12.1777C2.89352 11.9593 3.00938 11.7621 3.1808 11.6212L4.01747 10.932C4.2608 10.732 4.38163 10.4212 4.3758 10.1053C4.3745 10.0345 4.3745 9.96367 4.3758 9.89284C4.38163 9.57784 4.2608 9.26784 4.01747 9.06784L3.1808 8.37784C3.00958 8.23692 2.89386 8.03987 2.85419 7.8217C2.81453 7.60352 2.85348 7.37835 2.96413 7.18618L4.04497 5.31368C4.15596 5.12129 4.33164 4.97456 4.54073 4.89963C4.74981 4.82469 4.97871 4.82642 5.18663 4.90451L6.19997 5.28451C6.49663 5.39534 6.8258 5.34451 7.09663 5.18118C7.15663 5.14451 7.2183 5.10868 7.27997 5.07451C7.55663 4.92201 7.76497 4.66201 7.81663 4.35035L7.99497 3.28285V3.28285Z" stroke="#3D4953" stroke-width="1.5" stroke-linecap="round" stroke-linejoin="round"/>
<path d="M12.5 9.99951C12.5 10.6626 12.2366 11.2984 11.7678 11.7673C11.2989 12.2361 10.663 12.4995 10 12.4995C9.33696 12.4995 8.70107 12.2361 8.23223 11.7673C7.76339 11.2984 7.5 10.6626 7.5 9.99951C7.5 9.33647 7.76339 8.70059 8.23223 8.23174C8.70107 7.7629 9.33696 7.49951 10 7.49951C10.663 7.49951 11.2989 7.7629 11.7678 8.23174C12.2366 8.70059 12.5 9.33647 12.5 9.99951V9.99951Z" stroke="#3D4953" stroke-width="1.5" stroke-linecap="round" stroke-linejoin="round"/>
</g>
</svg>
