<svg width="20" height="20" viewBox="0 0 20 20" fill="none" xmlns="http://www.w3.org/2000/svg">
<g clip-path="url(#clip0_1827_15249)">
<path d="M5.86132 7.70033V6.13283H14.1387V7.70033M10 6.13283V14.3571M8.39859 13.9785H11.6014M1.98242 3.37892V16.4453M18.0176 3.37892V16.4453M3.37891 1.98244H16.6211M3.37891 18.0176H16.6211M3.91926 2.25262C3.91926 3.17309 3.17305 3.9193 2.25262 3.9193C1.33215 3.9193 0.585938 3.17309 0.585938 2.25262C0.585938 1.33215 1.33215 0.585938 2.25262 0.585938C3.17305 0.585938 3.91926 1.33215 3.91926 2.25262ZM3.91926 17.7474C3.91926 18.6679 3.17305 19.4141 2.25262 19.4141C1.33215 19.4141 0.585938 18.6679 0.585938 17.7474C0.585938 16.827 1.33215 16.0807 2.25262 16.0807C3.17305 16.0807 3.91926 16.827 3.91926 17.7474ZM19.4141 2.25262C19.4141 3.17309 18.6678 3.9193 17.7474 3.9193C16.827 3.9193 16.0807 3.17309 16.0807 2.25262C16.0807 1.33215 16.827 0.585938 17.7474 0.585938C18.6678 0.585938 19.4141 1.33215 19.4141 2.25262ZM19.4141 17.7474C19.4141 18.6679 18.6678 19.4141 17.7474 19.4141C16.827 19.4141 16.0807 18.6679 16.0807 17.7474C16.0807 16.827 16.827 16.0807 17.7474 16.0807C18.6678 16.0807 19.4141 16.827 19.4141 17.7474Z" stroke="#3D4953" stroke-width="1.5" stroke-miterlimit="10"/>
</g>
<defs>
<clipPath id="clip0_1827_15249">
<rect width="20" height="20" fill="white"/>
</clipPath>
</defs>
</svg>
